<?xml version="1.0" encoding="UTF-8"?>
<svg width="14px" height="14px" viewBox="0 0 14 14" version="1.1" xmlns="http://www.w3.org/2000/svg" xmlns:xlink="http://www.w3.org/1999/xlink">
    <title></title>
    <g id="页面-1" stroke="none" stroke-width="1" fill="none" fill-rule="evenodd">
        <g id="基本信息" transform="translate(-829.000000, -1028.000000)">
            <rect fill="#F7FAFC" x="0" y="0" width="1440" height="1113"></rect>
            <g id="原子级/新建/删除" transform="translate(829.000000, 1028.000000)" fill-rule="nonzero">
                <g id="垃圾桶-copy-4">
                    <rect id="Rectangle" fill="#000000" opacity="0" x="0" y="0" width="14" height="14"></rect>
                    <path d="M12.7647059,2.01764706 L9.47058823,2.01764706 L9.47058823,2.01764706 L9.47058823,0.87058823 C9.47058823,0.594445856 9.24673061,0.37058823 8.97058823,0.37058823 L5.02941177,0.37058823 C4.75326939,0.37058823 4.52941177,0.594445856 4.52941177,0.87058823 L4.52941177,2.01764706 L4.52941177,2.01764706 L1.23529412,2.01764706 C1.00788275,2.01764706 0.82352941,2.2020004 0.82352941,2.42941177 C0.82352941,2.65682314 1.00788275,2.84117647 1.23529412,2.84117647 L1.77058823,2.84117647 L1.77058823,2.84117647 L1.77058823,13.1705882 C1.77058823,13.4467306 1.99444586,13.6705882 2.27058823,13.6705882 L11.9764706,13.6705882 C12.252613,13.6705882 12.4764706,13.4467306 12.4764706,13.1705882 L12.4764706,2.84117647 L12.4764706,2.84117647 L12.7647059,2.84117647 C12.9921173,2.84117647 13.1764706,2.65682314 13.1764706,2.42941177 C13.1764706,2.2020004 12.9921173,2.01764706 12.7647059,2.01764706 Z M11.6529412,12.8058824 L2.59411764,12.8058824 L2.59411764,2.92352941 L11.6529412,2.92352941 L11.6529412,12.8058824 Z M5.35294118,1.19411764 L8.64705882,1.19411764 L8.64705882,2.01764706 L5.35294118,2.01764706 L5.35294118,1.19411764 L5.35294118,1.19411764 Z" id="Shape" fill="#596979"></path>
                    <path d="M6.58823529,4.48823529 L7.41176471,4.48823529 L7.41176471,11.0764706 L6.58823529,11.0764706 L6.58823529,4.48823529 Z M9.05882353,4.48823529 L9.88235294,4.48823529 L9.88235294,11.0764706 L9.05882353,11.0764706 L9.05882353,4.48823529 Z M4.11764706,4.48823529 L4.94117647,4.48823529 L4.94117647,11.0764706 L4.11764706,11.0764706 L4.11764706,4.48823529 Z" id="Shape" fill="#596979"></path>
                </g>
            </g>
        </g>
    </g>
</svg>