<?xml version="1.0" encoding="UTF-8"?>
<svg width="16px" height="16px" viewBox="0 0 16 16" version="1.1" xmlns="http://www.w3.org/2000/svg" xmlns:xlink="http://www.w3.org/1999/xlink">
    <title></title>
    <g id="供应商" stroke="none" stroke-width="1" fill="none" fill-rule="evenodd">
        <g id="供应商-参与的项目-业务主页" transform="translate(-490.000000, -1319.000000)">
            <g id="编组-7备份-2" transform="translate(238.000000, 1237.000000)">
                <g id="新建/上传附件" transform="translate(24.000000, 62.000000)">
                    <g id="编组-9" transform="translate(228.000000, 20.000000)">
                        <rect id="矩形备份-5" fill-opacity="0" fill="#EDEDED" x="0" y="0" width="16" height="16" rx="2"></rect>
                        <g id="upload备份" transform="translate(2.000000, 2.000000)" fill="#596979" fill-rule="nonzero">
                            <path d="M5.80371094,9.84785156 C5.8953125,9.93945312 6.01699219,9.9859375 6.13867188,9.9859375 C6.26035156,9.9859375 6.38066406,9.93945312 6.47363281,9.84785156 L8.60371094,7.71640625 C8.78828125,7.53183594 8.78828125,7.23242188 8.60371094,7.04785156 C8.51484375,6.95898438 8.39589844,6.90976563 8.27011719,6.90976563 C8.14433594,6.90976563 8.02539062,6.95898438 7.93652344,7.04785156 L6.61171875,8.37265625 L6.61171875,0.473046875 C6.61171875,0.211914062 6.39980469,0 6.13867188,0 C5.87753906,0 5.665625,0.211914062 5.665625,0.473046875 L5.665625,8.37265625 L4.34082031,7.04785156 C4.15625,6.86328125 3.85683594,6.86328125 3.67363281,7.04785156 C3.4890625,7.23242188 3.4890625,7.53183594 3.67226563,7.71640625 L5.80371094,9.84785156 Z M11.7769531,7.88046875 C11.5158203,7.88046875 11.3039063,8.09238281 11.3039063,8.35351563 L11.3039063,11.025 C11.3039063,11.1794922 11.178125,11.3066406 11.0222656,11.3066406 L1.22636719,11.3066406 C1.071875,11.3066406 0.944726562,11.1808594 0.944726562,11.025 L0.944726562,8.35214844 C0.944726562,8.09101563 0.7328125,7.87910156 0.471679688,7.87910156 C0.210546875,7.87910156 0,8.09238281 0,8.35214844 L0,11.3996094 C0,11.8685547 0.381445313,12.2486328 0.849023437,12.2486328 L11.4009766,12.2486328 C11.8699219,12.2486328 12.25,11.8671875 12.25,11.3996094 L12.25,8.35214844 C12.25,8.09238281 12.0380859,7.88046875 11.7769531,7.88046875 Z" id="Shape"></path>
                        </g>
                    </g>
                </g>
            </g>
        </g>
    </g>
</svg>