<?xml version="1.0" encoding="UTF-8"?>
<svg width="16px" height="16px" viewBox="0 0 16 16" version="1.1" xmlns="http://www.w3.org/2000/svg" xmlns:xlink="http://www.w3.org/1999/xlink">
    <title></title>
    <g id="供应商" stroke="none" stroke-width="1" fill="none" fill-rule="evenodd">
        <g id="供应商-参与的项目-业务主页" transform="translate(-350.000000, -385.000000)">
            <g id="编组备份" transform="translate(238.000000, 366.000000)">
                <g id="编组-5" transform="translate(112.000000, 19.000000)">
                    <rect id="矩形" stroke="#979797" fill="#D8D8D8" opacity="0" x="0.5" y="0.5" width="15" height="15"></rect>
                    <path d="M1,1 L15,1 C15.5522847,1 16,1.44771525 16,2 L16,13.6666667 C16,14.2189514 15.5522847,14.6666667 15,14.6666667 L13.358853,14.6666667 L13.358853,14.6666667 L9.33459971,14.6666667 L8.03125502,16 L6.65804832,14.6666667 L1,14.6666667 C0.44771525,14.6666667 6.76353751e-17,14.2189514 0,13.6666667 L0,2 C-6.76353751e-17,1.44771525 0.44771525,1 1,1 Z" id="矩形" fill="#F5BA45"></path>
                    <g id="编组-7" transform="translate(5.000000, 3.000000)" fill="#FFFFFF" fill-rule="nonzero">
                        <path d="M3.61589404,7 L3.61589404,6.77589454 C3.61589404,6.45951036 3.68211921,6.16949153 3.82781457,5.90583804 C3.94701987,5.66854991 4.13245033,5.43126177 4.38410596,5.22033898 C5.00662252,4.67984934 5.37748344,4.33709981 5.49668874,4.1920904 C5.82781457,3.77024482 6,3.22975518 6,2.58380414 C6,1.79284369 5.73509934,1.16007533 5.20529801,0.698681733 C4.67549669,0.224105461 3.98675497,0 3.13907285,0 C2.1589404,0 1.39072848,0.276836158 0.834437086,0.843691149 C0.278145695,1.39736347 0,2.14877589 0,3.11111111 L1.39072848,3.11111111 C1.39072848,2.53107345 1.50993377,2.08286252 1.74834437,1.76647834 C2.01324503,1.38418079 2.45033113,1.19962335 3.04635762,1.19962335 C3.52317881,1.19962335 3.90728477,1.33145009 4.17218543,1.59510358 C4.42384106,1.85875706 4.55629139,2.21468927 4.55629139,2.67608286 C4.55629139,3.01883239 4.42384106,3.33521657 4.18543046,3.63841808 L3.9602649,3.88888889 C3.13907285,4.61393597 2.63576159,5.15442561 2.46357616,5.52354049 C2.2781457,5.86629002 2.1986755,6.28813559 2.1986755,6.77589454 L2.1986755,7 L3.61589404,7 Z" id="路径"></path>
                        <path d="M2.99319728,10 C3.26530612,10 3.51020408,9.9020979 3.70068027,9.72027972 C3.89115646,9.52447552 4,9.28671329 4,8.99300699 C4,8.6993007 3.9047619,8.46153846 3.71428571,8.27972028 C3.52380952,8.08391608 3.27891156,8 2.99319728,8 C2.72108844,8 2.47619048,8.08391608 2.28571429,8.27972028 C2.0952381,8.46153846 2,8.6993007 2,8.99300699 C2,9.27272727 2.0952381,9.51048951 2.28571429,9.70629371 C2.47619048,9.9020979 2.72108844,10 2.99319728,10 Z" id="路径"></path>
                    </g>
                </g>
            </g>
        </g>
    </g>
</svg>